<svg width="64" height="64" viewBox="0 0 64 64" fill="none" xmlns="http://www.w3.org/2000/svg">
<g clip-path="url(#clip0_24_201)">
<rect width="64" height="64" rx="8" fill="#401075"/>
<rect x="6" y="6" width="52" height="52" rx="5" stroke="#AD7BEE" stroke-width="2"/>
<path d="M50.2572 3.13356C49.1686 5.34001 47.3724 7.12116 45.1569 8.19117C43.9225 8.78736 43.4332 9.98971 43.4291 10.9618C43.425 11.934 43.9042 13.1404 45.1336 13.747C47.34 14.8356 49.1212 16.6317 50.1912 18.8473C50.7874 20.0817 51.9897 20.571 52.9618 20.5751C53.934 20.5791 55.1404 20.1 55.747 18.8706C56.8356 16.6642 58.6317 14.883 60.8473 13.813C62.0817 13.2168 62.571 12.0145 62.5751 11.0423C62.5791 10.0702 62.1 8.86376 60.8706 8.25721C58.6642 7.16862 56.883 5.37243 55.813 3.15691C55.2168 1.92246 54.0145 1.4332 53.0423 1.42911C52.0702 1.42502 50.8638 1.90416 50.2572 3.13356Z" fill="white" stroke="#401075" stroke-width="5" stroke-linejoin="round"/>
<path d="M15.9174 31.7947C22.9446 28.5363 28.6125 22.9158 31.9299 15.9162C31.9356 15.9041 31.942 15.8961 31.9587 15.8866C31.9803 15.8743 32.0185 15.8617 32.0678 15.8619C32.1172 15.8621 32.1552 15.8751 32.1767 15.8875C32.1933 15.8972 32.1997 15.9052 32.2053 15.9174C35.4637 22.9446 41.0842 28.6125 48.0838 31.9299C48.0959 31.9356 48.1039 31.942 48.1134 31.9587C48.1257 31.9803 48.1383 32.0185 48.1381 32.0678C48.1379 32.1172 48.1249 32.1552 48.1125 32.1767C48.1028 32.1933 48.0948 32.1997 48.0826 32.2053C41.0554 35.4637 35.3875 41.0842 32.0701 48.0838C32.0644 48.0959 32.058 48.1039 32.0413 48.1134C32.0197 48.1257 31.9815 48.1383 31.9322 48.1381C31.8828 48.1379 31.8448 48.1249 31.8233 48.1125C31.8067 48.1028 31.8003 48.0948 31.7947 48.0826C28.5363 41.0554 22.9158 35.3875 15.9162 32.0701C15.9041 32.0644 15.8961 32.058 15.8866 32.0413C15.8743 32.0197 15.8617 31.9815 15.8619 31.9322C15.8621 31.8828 15.8751 31.8448 15.8875 31.8233C15.8972 31.8067 15.9052 31.8003 15.9174 31.7947Z" fill="white" stroke="white" stroke-width="2"/>
</g>
<defs>
<clipPath id="clip0_24_201">
<rect width="64" height="64" rx="8" fill="white"/>
</clipPath>
</defs>
</svg>
